<svg xmlns="http://www.w3.org/2000/svg" xmlns:xlink="http://www.w3.org/1999/xlink" width="3840" zoomAndPan="magnify" viewBox="0 0 2880 2879.999992" height="3840" preserveAspectRatio="xMidYMid meet" version="1.0">
<defs>
<clipPath id="2bc99eec4c">
<path d="M 109.554688 145.5625 L 2743.191406 145.5625 L 2743.191406 2779.199219 L 109.554688 2779.199219 Z M 109.554688 145.5625 " clip-rule="nonzero"/>
</clipPath>
<clipPath id="75fac4da76">
<path d="M 1426.371094 145.5625 C 699.113281 145.5625 109.554688 735.121094 109.554688 1462.378906 C 109.554688 2189.636719 699.113281 2779.199219 1426.371094 2779.199219 C 2153.632812 2779.199219 2743.191406 2189.636719 2743.191406 1462.378906 C 2743.191406 735.121094 2153.632812 145.5625 1426.371094 145.5625 Z M 1426.371094 145.5625 " clip-rule="nonzero"/>
</clipPath>
</defs>
<rect x="-288" width="3456" fill="#011f5b" y="-287.999999" height="3455.999991" fill-opacity="1"/>
<rect x="-288" width="3456" fill="#011f5b" y="-287.999999" height="3455.999991" fill-opacity="1"/>
<g clip-path="url(#2bc99eec4c)">
<g clip-path="url(#75fac4da76)">
<path fill="#011f5b" d="M 109.554688 145.5625 L 2743.191406 145.5625 L 2743.191406 2779.199219 L 109.554688 2779.199219 Z M 109.554688 145.5625 " fill-opacity="1" fill-rule="nonzero"/>
</g>
</g>
<path stroke-linecap="round" transform="matrix(6.668363, -1.511089, 1.511089, 6.668363, 530.157628, 874.197829)" fill="none" stroke-linejoin="miter" d="M 2.499925 2.499808 L 97.881484 2.499974 " stroke="#ffffff" stroke-width="5" stroke-opacity="1" stroke-miterlimit="4"/><path stroke-linecap="round" transform="matrix(6.658988, 1.55188, -1.55188, 6.658988, 1691.267281, 715.893932)" fill="none" stroke-linejoin="miter" d="M 3.000204 3.000074 L 96.885882 3.000059 " stroke="#ffffff" stroke-width="6" stroke-opacity="1" stroke-miterlimit="4"/><path stroke-linecap="round" transform="matrix(4.433388, 5.205335, -5.205335, 4.433388, 1198.382423, 725.926412)" fill="none" stroke-linejoin="miter" d="M 3.000113 3.000131 L 58.295854 2.999948 " stroke="#ffffff" stroke-width="6" stroke-opacity="1" stroke-miterlimit="4"/><path stroke-linecap="round" transform="matrix(-4.365163, 5.26268, -5.26268, -4.365163, 1723.283471, 745.770187)" fill="none" stroke-linejoin="miter" d="M 2.999938 3.000338 L 58.872255 3.000122 " stroke="#ffffff" stroke-width="6" stroke-opacity="1" stroke-miterlimit="4"/><path stroke-linecap="round" transform="matrix(6.613045, 1.737265, -1.737265, 6.613045, 1442.695836, 1021.609279)" fill="none" stroke-linejoin="miter" d="M 3.000146 2.999954 L 90.162791 3.000133 " stroke="#ffffff" stroke-width="6" stroke-opacity="1" stroke-miterlimit="4"/><path stroke-linecap="round" transform="matrix(6.613744, 1.734599, -1.734599, 6.613744, 822.757647, 1181.609688)" fill="none" stroke-linejoin="miter" d="M 2.999979 3.000237 L 93.311371 2.99998 " stroke="#ffffff" stroke-width="6" stroke-opacity="1" stroke-miterlimit="4"/><path stroke-linecap="round" transform="matrix(6.631436, -1.665684, 1.665684, 6.631436, 813.390448, 1184.853791)" fill="none" stroke-linejoin="miter" d="M 2.49989 2.500177 L 93.554136 2.500116 " stroke="#ffffff" stroke-width="5" stroke-opacity="1" stroke-miterlimit="4"/><path stroke-linecap="round" transform="matrix(6.578598, -1.863462, 1.863462, 6.578598, 1427.614621, 1348.761016)" fill="none" stroke-linejoin="miter" d="M 3.000092 3 L 90.674915 2.999965 " stroke="#ffffff" stroke-width="6" stroke-opacity="1" stroke-miterlimit="4"/><path stroke-linecap="round" transform="matrix(4.499444, 5.148344, -5.148344, 4.499444, 572.164778, 879.636277)" fill="none" stroke-linejoin="miter" d="M 2.499839 2.499774 L 60.582703 2.499925 " stroke="#ffffff" stroke-width="5" stroke-opacity="1" stroke-miterlimit="4"/><path stroke-linecap="round" transform="matrix(-4.697072, 4.968697, -4.968697, -4.697072, 2348.627708, 904.993548)" fill="none" stroke-linejoin="miter" d="M 3.000168 3.000141 L 60.214401 2.999917 " stroke="#ffffff" stroke-width="6" stroke-opacity="1" stroke-miterlimit="4"/><path stroke-linecap="round" transform="matrix(-6.572091, 1.886286, -1.886286, -6.572091, 2327.935677, 1513.038441)" fill="none" stroke-linejoin="miter" d="M 2.999703 2.999999 L 93.904371 2.999925 " stroke="#ffffff" stroke-width="6" stroke-opacity="1" stroke-miterlimit="4"/><path stroke-linecap="round" transform="matrix(-4.664687, -4.999114, 4.999114, -4.664687, 1690.958377, 1689.070681)" fill="none" stroke-linejoin="miter" d="M 3.000195 3.000038 L 58.119313 3.000069 " stroke="#ffffff" stroke-width="6" stroke-opacity="1" stroke-miterlimit="4"/><path stroke-linecap="round" transform="matrix(-4.708054, -4.958293, 4.958293, -4.708054, 2318.850837, 1507.406529)" fill="none" stroke-linejoin="miter" d="M 3.000131 3.000125 L 57.042325 3.000119 " stroke="#ffffff" stroke-width="6" stroke-opacity="1" stroke-miterlimit="4"/><path stroke-linecap="round" transform="matrix(-6.658988, -1.55188, 1.55188, -6.658988, 1188.656783, 1704.718512)" fill="none" stroke-linejoin="miter" d="M 2.999931 3.000012 L 96.886166 2.999867 " stroke="#ffffff" stroke-width="6" stroke-opacity="1" stroke-miterlimit="4"/><path stroke-linecap="round" transform="matrix(4.365163, -5.26268, 5.26268, 4.365163, 1156.629913, 1674.842378)" fill="none" stroke-linejoin="miter" d="M 2.999996 2.999676 L 58.871873 2.999826 " stroke="#ffffff" stroke-width="6" stroke-opacity="1" stroke-miterlimit="4"/><path stroke-linecap="round" transform="matrix(4.586392, -5.071041, 5.071041, 4.586392, 530.991724, 1515.964953)" fill="none" stroke-linejoin="miter" d="M 3.000003 3.000159 L 61.740382 3.000133 " stroke="#ffffff" stroke-width="6" stroke-opacity="1" stroke-miterlimit="4"/><path stroke-linecap="round" transform="matrix(0.0137025, -6.837416, 6.837416, 0.0137025, 1416.159541, 2188.657731)" fill="none" stroke-linejoin="miter" d="M 2.999867 3.000285 L 114.362065 2.999919 " stroke="#ffffff" stroke-width="6" stroke-opacity="1" stroke-miterlimit="4"/><path stroke-linecap="round" transform="matrix(0, -6.83743, 6.83743, 0, 2049.053817, 2050.441185)" fill="none" stroke-linejoin="miter" d="M 2.999884 3.000044 L 67.514372 3.000044 " stroke="#ffffff" stroke-width="6" stroke-opacity="1" stroke-miterlimit="4"/><path stroke-linecap="round" transform="matrix(0, -6.83743, 6.83743, 0, 780.962657, 2050.449393)" fill="none" stroke-linejoin="miter" d="M 2.999942 3.000236 L 65.527435 3.000236 " stroke="#ffffff" stroke-width="6" stroke-opacity="1" stroke-miterlimit="4"/><path stroke-linecap="round" transform="matrix(-6.658988, -1.55188, 1.55188, -6.658988, 1446.375516, 2208.71273)" fill="none" stroke-linejoin="miter" d="M 2.999866 2.999745 L 96.886231 3.000157 " stroke="#ffffff" stroke-width="6" stroke-opacity="1" stroke-miterlimit="4"/><path stroke-linecap="round" transform="matrix(-6.645426, 1.608962, -1.608962, -6.645426, 2074.3778, 2053.676961)" fill="none" stroke-linejoin="miter" d="M 3.000152 3.000212 L 93.462414 3.000149 " stroke="#ffffff" stroke-width="6" stroke-opacity="1" stroke-miterlimit="4"/></svg>